<svg width="67" height="67" fill="none" xmlns="http://www.w3.org/2000/svg"><path d="M0 33.5C0 14.998 14.998 0 33.5 0 52.002 0 67 14.998 67 33.5 67 52.002 52.002 67 33.5 67 14.998 67 0 52.002 0 33.5Z" fill="#28A745"/><path d="M49.906 23.75v1.094a.547.547 0 0 1-.547.547h-1.64v.82a.82.82 0 0 1-.82.82H20.101a.82.82 0 0 1-.82-.82v-.82H17.64a.547.547 0 0 1-.547-.547V23.75a.546.546 0 0 1 .337-.505l15.86-6.016a.547.547 0 0 1 .418 0l15.86 6.016a.546.546 0 0 1 .337.505Zm-1.64 20.781H18.734a1.64 1.64 0 0 0-1.64 1.64v1.095a.547.547 0 0 0 .547.547h31.718a.547.547 0 0 0 .547-.547v-1.094a1.64 1.64 0 0 0-1.64-1.64ZM22.563 28.125V41.25h-2.461a.82.82 0 0 0-.82.82v1.367h28.437V42.07a.82.82 0 0 0-.82-.82h-2.462V28.125h-4.374V41.25h-4.376V28.125h-4.374V41.25h-4.375V28.125h-4.375Z" fill="#fff"/></svg>