<svg width="67" height="67" fill="none" xmlns="http://www.w3.org/2000/svg"><path d="M0 33.5C0 14.998 14.998 0 33.5 0 52.002 0 67 14.998 67 33.5 67 52.002 52.002 67 33.5 67 14.998 67 0 52.002 0 33.5Z" fill="#28A745"/><path d="m51.036 26.714-3.151 3.151a.821.821 0 0 1-1.162 0l-7.588-7.588a.821.821 0 0 1 0-1.162l3.151-3.151a3.288 3.288 0 0 1 4.642 0l4.108 4.108a3.276 3.276 0 0 1 0 4.642Zm-14.608-2.892L18.477 41.773l-1.45 8.306c-.198 1.121.78 2.092 1.9 1.9l8.306-1.456 17.952-17.95a.821.821 0 0 0 0-1.163l-7.588-7.588a.83.83 0 0 0-1.17 0ZM25.483 40.235a.953.953 0 0 1 0-1.353l10.528-10.527a.953.953 0 0 1 1.353 0 .953.953 0 0 1 0 1.353L26.837 40.235a.953.953 0 0 1-1.354 0Zm-2.467 5.75h3.28v2.48l-4.408.773-2.126-2.126.772-4.409h2.482v3.281Z" fill="#fff"/></svg>