<svg width="67" height="67" fill="none" xmlns="http://www.w3.org/2000/svg"><path d="M0 33.5C0 14.998 14.998 0 33.5 0 52.002 0 67 14.998 67 33.5 67 52.002 52.002 67 33.5 67 14.998 67 0 52.002 0 33.5Z" fill="#28A745"/><path d="M41.063 22.563a6.562 6.562 0 1 0-13.125 0 6.562 6.562 0 0 0 13.125 0Zm-8.095 9.918c-4.056-2.482-10.625-3.165-13.93-3.353-1.112-.063-2.038.784-2.038 1.852v15.23c0 .98.792 1.797 1.81 1.85 2.985.156 9.024.73 13.197 2.832.64.323 1.4-.117 1.4-.811V33.265a.91.91 0 0 0-.439-.784Zm16.995-3.353c-3.305.188-9.875.87-13.93 3.353a.927.927 0 0 0-.439.795v16.802c0 .697.762 1.137 1.404.814 4.173-2.1 10.208-2.674 13.192-2.83 1.018-.053 1.81-.87 1.81-1.85V30.98c0-1.068-.926-1.915-2.037-1.852Z" fill="#fff"/></svg>