<svg width="67" height="67" viewBox="0 0 67 67" fill="none" xmlns="http://www.w3.org/2000/svg">
<path d="M0 33.5C0 14.9985 14.9985 0 33.5 0C52.0015 0 67 14.9985 67 33.5C67 52.0015 52.0015 67 33.5 67C14.9985 67 0 52.0015 0 33.5Z" fill="#28A745"/>
<path d="M49.9062 23.75V24.8437C49.9062 24.9888 49.8486 25.1279 49.7461 25.2304C49.6435 25.333 49.5044 25.3906 49.3594 25.3906H47.7188V26.2109C47.7188 26.6639 47.3515 27.0312 46.8984 27.0312H20.1016C19.6485 27.0312 19.2812 26.6639 19.2812 26.2109V25.3906H17.6406C17.4956 25.3906 17.3565 25.333 17.2539 25.2304C17.1514 25.1279 17.0938 24.9888 17.0938 24.8437V23.75C17.0938 23.6418 17.1258 23.536 17.186 23.4461C17.2461 23.3561 17.3315 23.286 17.4315 23.2447L33.2909 17.229C33.4248 17.1736 33.5752 17.1736 33.7091 17.229L49.5685 23.2447C49.6685 23.286 49.7539 23.3561 49.814 23.4461C49.8742 23.536 49.9062 23.6418 49.9062 23.75ZM48.2656 44.5312H18.7344C17.8283 44.5312 17.0938 45.2657 17.0938 46.1719V47.2656C17.0938 47.4106 17.1514 47.5497 17.2539 47.6523C17.3565 47.7549 17.4956 47.8125 17.6406 47.8125H49.3594C49.5044 47.8125 49.6435 47.7549 49.7461 47.6523C49.8486 47.5497 49.9062 47.4106 49.9062 47.2656V46.1719C49.9062 45.2657 49.1717 44.5312 48.2656 44.5312ZM22.5625 28.125V41.25H20.1016C19.6485 41.25 19.2812 41.6173 19.2812 42.0703V43.4375H47.7188V42.0703C47.7188 41.6173 47.3515 41.25 46.8984 41.25H44.4375V28.125H40.0625V41.25H35.6875V28.125H31.3125V41.25H26.9375V28.125H22.5625Z" fill="white"/>
</svg>
