<svg width="67" height="67" viewBox="0 0 67 67" fill="none" xmlns="http://www.w3.org/2000/svg">
<path d="M0 33.5C0 14.9985 14.9985 0 33.5 0C52.0015 0 67 14.9985 67 33.5C67 52.0015 52.0015 67 33.5 67C14.9985 67 0 52.0015 0 33.5Z" fill="#28A745"/>
<path d="M51.0361 26.7138L47.8848 29.8652C47.5635 30.1865 47.044 30.1865 46.7227 29.8652L39.1348 22.2773C38.8135 21.956 38.8135 21.4365 39.1348 21.1152L42.2861 17.9639C43.5645 16.6855 45.6426 16.6855 46.9277 17.9639L51.0361 22.0723C52.3213 23.3506 52.3213 25.4287 51.0361 26.7138ZM36.4277 23.8222L18.4766 41.7734L17.0274 50.0791C16.8291 51.2002 17.8067 52.1709 18.9277 51.9795L27.2334 50.5234L45.1846 32.5722C45.5059 32.251 45.5059 31.7314 45.1846 31.4101L37.5967 23.8222C37.2686 23.501 36.749 23.501 36.4277 23.8222ZM25.4834 40.2353C25.1074 39.8593 25.1074 39.2578 25.4834 38.8818L36.0108 28.3545C36.3867 27.9785 36.9883 27.9785 37.3643 28.3545C37.7402 28.7304 37.7402 29.332 37.3643 29.708L26.8369 40.2353C26.4609 40.6113 25.8594 40.6113 25.4834 40.2353ZM23.0156 45.9843H26.2969V48.4658L21.8877 49.2382L19.7617 47.1123L20.5342 42.7031H23.0156V45.9843Z" fill="white"/>
</svg>
