<svg width="67" height="67" viewBox="0 0 67 67" fill="none" xmlns="http://www.w3.org/2000/svg">
<path d="M0 33.5C0 14.9985 14.9985 0 33.5 0C52.0015 0 67 14.9985 67 33.5C67 52.0015 52.0015 67 33.5 67C14.9985 67 0 52.0015 0 33.5Z" fill="#28A745"/>
<path d="M41.0625 22.5625C41.0625 18.9381 38.1244 16 34.5 16C30.8756 16 27.9375 18.9381 27.9375 22.5625C27.9375 26.1869 30.8756 29.125 34.5 29.125C38.1244 29.125 41.0625 26.1869 41.0625 22.5625ZM32.9681 32.4814C28.9123 29.9986 22.343 29.3164 19.0371 29.1284C17.9263 29.0655 17 29.9118 17 30.9803V46.2107C17 47.1903 17.7923 48.0072 18.8108 48.0599C21.7954 48.2164 27.8336 48.7899 32.0069 50.892C32.6475 51.2146 33.4069 50.7751 33.4069 50.0806V33.2648C33.4062 32.9456 33.2483 32.653 32.9681 32.4814ZM49.9629 29.1284C46.6577 29.3157 40.0877 29.9986 36.0326 32.4814C35.7523 32.653 35.5944 32.9572 35.5944 33.2765V50.0785C35.5944 50.7751 36.356 51.2153 36.9985 50.892C41.1712 48.792 47.206 48.2185 50.1898 48.0619C51.2084 48.0086 52.0007 47.1917 52.0007 46.2121V30.9803C52 29.9118 51.0737 29.0655 49.9629 29.1284Z" fill="white"/>
</svg>
