<?xml version="1.0" standalone="no"?>
<!DOCTYPE svg PUBLIC "-//W3C//DTD SVG 20010904//EN"
 "http://www.w3.org/TR/2001/REC-SVG-20010904/DTD/svg10.dtd">
<svg version="1.0" xmlns="http://www.w3.org/2000/svg"
 width="1280.000000pt" height="1280.000000pt" viewBox="0 0 1280.000000 1280.000000"
 preserveAspectRatio="xMidYMid meet">
<metadata>
Created by potrace 1.14, written by Peter Selinger 2001-2017
</metadata>
<g transform="translate(0.000000,1280.000000) scale(0.100000,-0.100000)"
fill="#000000" stroke="none">
<path d="M598 11295 c-3 -3 -21 -7 -39 -9 -34 -4 -41 -6 -111 -32 -50 -18
-132 -56 -138 -64 -3 -3 -23 -19 -45 -35 -65 -48 -134 -124 -166 -183 -32 -60
-35 -65 -53 -102 -46 -98 -44 75 -44 -3935 0 -3926 -1 -3843 38 -3920 5 -11
14 -33 20 -48 36 -101 164 -240 285 -310 63 -36 192 -83 202 -73 3 3 11 2 18
-4 6 -5 52 -11 103 -14 50 -2 97 -8 103 -12 8 -5 9 -3 4 6 -6 9 -4 11 5 5 8
-5 43 -10 79 -11 36 -1 66 -3 66 -4 0 -1 25 -3 55 -4 30 -1 61 -5 67 -9 8 -5
13 -3 13 3 0 6 5 8 10 5 6 -4 43 -9 83 -11 80 -6 142 -11 142 -14 0 -1 32 -3
70 -6 39 -2 88 -6 110 -9 22 -2 69 -7 105 -10 36 -3 85 -8 110 -10 25 -3 63
-7 85 -10 22 -2 40 -4 40 -5 0 -1 16 -3 35 -4 19 -1 67 -6 105 -11 39 -5 78
-10 88 -11 9 -1 18 -2 20 -3 1 -2 19 -4 41 -6 21 -2 59 -6 85 -10 25 -3 61 -8
79 -11 45 -6 103 -14 132 -19 14 -2 61 -9 105 -16 85 -12 86 -13 180 -28 33
-6 76 -13 95 -16 19 -2 46 -7 60 -10 14 -3 41 -8 60 -11 19 -4 44 -8 55 -11
11 -2 36 -6 55 -9 70 -11 80 -13 88 -18 4 -2 28 -7 52 -10 25 -3 62 -10 83
-15 20 -5 37 -7 37 -5 0 3 8 0 19 -5 10 -6 36 -12 57 -15 21 -2 39 -5 39 -6 0
-1 7 -3 15 -5 58 -12 79 -17 105 -21 17 -3 37 -7 45 -10 8 -3 26 -8 40 -11 43
-9 55 -11 55 -13 0 -1 10 -3 23 -6 39 -7 292 -72 387 -99 50 -14 95 -27 100
-29 6 -1 30 -9 55 -16 25 -8 47 -14 50 -15 3 -1 25 -7 50 -14 25 -7 68 -21 96
-31 29 -10 55 -16 58 -13 3 4 6 0 6 -7 0 -7 3 -11 6 -8 3 4 21 0 40 -8 19 -8
36 -14 39 -14 6 -1 29 -8 52 -17 10 -3 21 -5 26 -5 4 1 7 -3 7 -9 0 -5 4 -8 9
-5 4 3 32 -4 62 -16 30 -11 63 -24 74 -29 11 -4 83 -33 160 -64 77 -31 147
-58 155 -60 9 -2 33 -13 53 -24 21 -12 44 -21 52 -21 8 0 15 -4 15 -10 0 -5 6
-10 13 -10 6 0 30 -9 52 -19 22 -10 44 -18 49 -19 5 0 12 -4 15 -9 14 -20 156
-74 208 -79 57 -6 203 21 203 37 0 5 6 9 14 9 22 0 104 87 133 142 l28 53 0
4070 0 4070 -22 48 c-13 27 -29 55 -37 62 -8 8 -16 18 -18 22 -9 22 -136 106
-253 168 -102 55 -125 65 -131 64 -4 0 -10 3 -13 8 -6 9 -215 113 -226 113 -2
0 -37 15 -77 34 -74 34 -294 126 -313 130 -5 1 -21 8 -35 16 -14 7 -25 12 -25
11 0 -5 -107 34 -139 51 -14 7 -16 6 -10 -4 6 -10 5 -11 -7 -2 -13 11 -150 61
-186 69 -10 2 -31 9 -48 15 -16 6 -37 13 -45 16 -8 2 -69 20 -135 39 -104 31
-190 56 -245 71 -8 2 -33 8 -55 14 -22 6 -47 12 -55 14 -8 2 -33 9 -55 15 -22
6 -51 12 -65 15 -14 2 -25 5 -25 6 0 3 -69 19 -115 26 -19 3 -42 10 -51 15 -9
4 -19 6 -22 3 -3 -3 -12 -2 -19 2 -14 9 -16 10 -73 19 -22 3 -53 10 -70 15
-16 4 -48 12 -70 16 -22 4 -44 8 -50 9 -5 2 -23 5 -40 8 -16 3 -64 12 -105 21
-41 8 -92 17 -114 20 -21 4 -41 8 -45 11 -4 2 -27 6 -52 9 -24 3 -80 12 -124
20 -44 8 -98 18 -120 21 -23 3 -52 7 -65 10 -13 3 -42 7 -65 10 -22 3 -53 9
-70 12 -16 4 -43 7 -60 8 -16 1 -48 5 -70 9 -53 9 -99 15 -160 22 -27 3 -61 7
-75 9 -22 4 -103 14 -170 21 -14 1 -25 3 -25 4 0 1 -18 3 -40 5 -22 2 -62 6
-90 9 -27 3 -75 8 -105 11 -30 3 -73 7 -95 9 -22 3 -69 7 -105 10 -36 4 -92 9
-125 12 -33 3 -82 7 -110 9 -27 2 -81 7 -120 10 -157 15 -489 28 -497 20z"/>
<path d="M11748 11295 c-2 -2 -51 -7 -108 -10 -131 -8 -129 -8 -410 -31 -113
-9 -169 -14 -215 -19 -27 -4 -68 -8 -90 -10 -22 -2 -40 -4 -40 -5 0 -1 -22 -3
-50 -6 -50 -4 -103 -10 -160 -17 -28 -4 -128 -16 -185 -23 -72 -8 -119 -14
-155 -19 -62 -9 -118 -17 -140 -21 -11 -2 -40 -5 -65 -8 -25 -3 -83 -12 -130
-20 -47 -9 -101 -17 -120 -20 -32 -5 -48 -8 -120 -21 -14 -3 -42 -8 -64 -11
-21 -3 -48 -8 -60 -10 -20 -4 -68 -12 -109 -20 -10 -2 -26 -5 -35 -8 -9 -3
-34 -7 -54 -10 -21 -3 -59 -11 -85 -17 -27 -6 -57 -12 -68 -15 -68 -13 -142
-29 -190 -39 -11 -3 -29 -7 -40 -9 -11 -2 -58 -14 -105 -25 -47 -12 -95 -23
-107 -26 -34 -7 -49 -11 -153 -39 -52 -13 -121 -32 -153 -40 -32 -8 -120 -34
-195 -57 -75 -23 -141 -42 -146 -44 -6 -1 -18 -5 -26 -8 -23 -10 -114 -39
-125 -41 -5 -1 -23 -7 -40 -13 -63 -24 -71 -26 -89 -30 -11 -2 -24 -7 -30 -12
-6 -4 -23 -11 -37 -14 -14 -4 -43 -14 -65 -24 -21 -10 -43 -18 -49 -19 -5 0
-23 -6 -38 -12 -16 -7 -52 -21 -80 -33 -65 -26 -65 -27 -217 -95 -69 -31 -143
-63 -165 -72 -22 -9 -42 -19 -45 -22 -3 -4 -51 -30 -108 -58 -57 -29 -121 -64
-142 -77 -22 -14 -43 -25 -47 -25 -12 0 -147 -93 -166 -115 -48 -55 -79 -124
-81 -182 -1 -13 -3 -23 -6 -23 -7 0 -4 -366 3 -384 3 -8 3 -17 -1 -20 -10 -10
-8 -185 2 -178 5 3 6 -1 1 -8 -7 -11 -11 -246 -5 -275 1 -5 1 -14 0 -20 -3
-13 -3 -287 0 -300 1 -5 1 -14 0 -20 -3 -13 -3 -287 0 -300 1 -5 1 -14 0 -20
-3 -13 -3 -287 0 -300 1 -5 1 -14 0 -20 -3 -13 -3 -287 0 -300 1 -5 1 -14 0
-20 -3 -13 -3 -287 0 -300 1 -5 1 -14 0 -20 -3 -13 -3 -287 0 -300 1 -5 1 -14
0 -20 -3 -13 -3 -287 0 -300 1 -5 1 -14 0 -20 -3 -13 -3 -447 0 -460 1 -5 1
-14 0 -20 -7 -32 -4 -182 4 -177 5 3 6 -1 1 -8 -9 -15 -11 -392 -2 -407 4 -7
4 -14 0 -16 -7 -4 -9 -132 -3 -147 1 -3 1 -9 0 -15 -3 -12 -3 -155 0 -170 1
-5 1 -14 0 -20 -7 -32 -4 -182 4 -177 5 3 6 -1 1 -8 -9 -15 -11 -392 -2 -407
4 -7 4 -14 0 -16 -7 -4 -9 -132 -3 -147 1 -3 1 -9 0 -15 -3 -12 -3 -155 0
-170 1 -5 1 -14 0 -20 -7 -32 -4 -182 4 -177 5 3 6 -1 1 -8 -7 -11 -11 -246
-5 -275 1 -5 1 -14 0 -20 -3 -13 -3 -287 0 -300 1 -5 1 -14 0 -20 -3 -13 -3
-287 0 -300 1 -5 1 -14 0 -20 -3 -13 -3 -287 0 -300 1 -5 1 -14 0 -20 -3 -13
-3 -447 0 -460 1 -5 1 -14 0 -20 -7 -32 -4 -182 4 -177 5 3 6 -1 1 -8 -10 -16
-10 -374 0 -415 11 -46 39 -115 48 -115 4 0 7 -5 7 -11 0 -20 85 -90 140 -116
46 -22 69 -26 145 -26 58 0 99 4 115 13 14 8 30 13 36 12 6 -1 17 5 24 13 7 8
21 15 31 15 11 0 19 4 19 9 0 5 10 12 23 16 12 4 24 8 27 10 14 6 130 59 165
75 22 10 58 26 80 35 22 9 49 21 60 26 90 38 195 76 199 71 3 -3 6 -1 6 5 0 6
10 13 23 16 12 2 66 20 119 40 53 19 99 33 102 29 3 -3 6 -1 6 5 0 5 6 10 13
10 6 0 55 15 107 32 52 17 100 31 107 31 7 0 13 4 13 8 0 4 8 8 18 8 9 1 80
20 157 43 77 23 149 43 160 46 11 2 20 4 20 5 0 1 7 3 15 5 8 1 44 11 80 20
36 9 73 19 83 21 10 2 27 6 37 9 10 3 27 8 37 10 10 2 47 11 83 20 36 9 77 18
93 18 15 1 27 5 27 8 0 3 6 6 13 6 6 0 23 3 37 6 14 4 39 9 55 12 17 3 50 11
75 16 59 14 71 16 111 23 19 3 45 8 59 11 14 4 39 8 55 11 17 2 41 7 55 11 14
3 33 7 43 8 9 2 18 4 20 5 1 1 13 3 27 5 23 2 48 6 120 19 66 12 154 28 178
31 72 11 99 15 118 19 12 2 45 7 74 11 29 4 62 9 74 11 33 7 97 15 141 19 22
2 40 5 40 6 0 2 3 2 100 13 33 4 71 9 85 11 87 12 150 19 182 19 21 1 38 3 38
6 0 3 15 6 33 6 17 1 55 4 82 8 56 7 133 15 215 21 30 2 55 5 55 5 0 1 20 4
45 5 25 2 83 7 130 11 47 4 104 7 127 8 24 0 43 3 43 6 0 5 94 10 247 13 35 1
63 4 63 7 0 3 30 5 68 6 64 1 106 5 182 20 45 8 212 88 247 117 92 76 191 198
208 257 4 14 12 30 17 36 5 7 11 21 13 33 6 28 14 60 23 91 8 32 8 7561 0
7615 -10 60 -24 109 -42 145 -9 18 -16 39 -16 47 0 7 -4 13 -9 13 -5 0 -14 13
-20 28 -6 15 -23 41 -37 57 -14 17 -36 41 -48 55 -25 29 -121 110 -130 110 -4
0 -24 11 -46 25 -22 14 -40 22 -40 18 0 -5 -4 -3 -8 2 -8 12 -71 35 -95 35 -9
0 -17 4 -17 8 0 4 -8 9 -17 10 -36 4 -292 10 -295 7z"/>
</g>
</svg>
